
        <svg xmlns="http://www.w3.org/2000/svg" xmlns:xlink="http://www.w3.org/1999/xlink" version="1.1" width="3300" height="1975.1152539542325" viewBox="0 0 3300 1975.1152539542325">
			
			<g transform="scale(15) translate(10, 10)">
				<defs id="SvgjsDefs2060"/><g id="SvgjsG2061" featureKey="nameFeature-0" transform="matrix(3.8402456407123697,0,0,3.8402456407123697,-4.60829037404248,-44.2396168895569)" fill="#fff"><path d="M19.72 12 l0 18.56 c0 7.36 -5.88 9.92 -9.88 9.92 c-4.28 0 -6.92 -1.68 -8.64 -3.88 l3.48 -4.28 c1.04 1.16 2.72 2.52 4.84 2.52 c1.52 0 4.36 -0.64 4.36 -5.08 l0 -17.76 l5.84 0 z M33.68 11.52 c4.92 0 8.04 3.08 9.52 5.8 l-4.32 2.56 c-1.52 -2.12 -3 -3.2 -5.2 -3.2 c-1.96 0 -3.4 1.16 -3.4 2.76 s0.92 2.44 3.12 3.24 l1.92 0.68 c6.2 2.2 8.64 4.96 8.64 8.8 c0 5.64 -5.36 8.44 -10.12 8.44 c-5.04 0 -8.96 -3 -10.32 -6.92 l4.48 -2.36 c1 2.04 2.68 4 5.84 4 c2.28 0 4.04 -1 4.04 -3.08 c0 -2 -1.2 -2.88 -4.24 -4.04 l-1.72 -0.6 c-4.12 -1.48 -7.44 -3.52 -7.44 -8.4 c0 -4.48 4.2 -7.68 9.2 -7.68 z M50.04 40.2 c-1.84 0 -3.28 -1.44 -3.28 -3.28 c0 -1.8 1.44 -3.24 3.28 -3.24 c1.8 0 3.24 1.44 3.24 3.24 c0 1.84 -1.44 3.28 -3.24 3.28 z"/></g>
			</g>
		</svg>
	