
        <svg xmlns="http://www.w3.org/2000/svg" xmlns:xlink="http://www.w3.org/1999/xlink" version="1.1" width="3181.8181818181824" height="475.3101705572078" viewBox="0 0 3181.8181818181824 475.3101705572078">
			
			<g transform="scale(9.090909090909092) translate(10, 10)">
				<defs id="SvgjsDefs3295"/><g id="SvgjsG3296" featureKey="symbolFeature-0" transform="matrix(1.0407180583007998,0,0,1.0407180583007998,-12.035906885064321,-35.89436360758096)" fill="#fff"><path xmlns="http://www.w3.org/2000/svg" d="M29.399,57.112c0.615,0.308,1.077,0.846,1.077,1.383c0,1.039-1.038,1.961-1.999,1.462l-15.223-7.881  c-0.846-0.499-1.576-0.808-1.576-1.884c0-1.115,0.692-1.385,1.576-1.922l15.223-7.881c1.038-0.346,1.999,0.424,1.999,1.462  c0,0.575-0.461,1.114-1.077,1.423l-13.761,6.918L29.399,57.112z"/><path xmlns="http://www.w3.org/2000/svg" d="M29.033,60.209c-0.208,0-0.413-0.052-0.608-0.152l-15.223-7.881c-0.086-0.05-0.165-0.095-0.242-0.141  c-0.748-0.431-1.395-0.804-1.395-1.843c0-1.057,0.594-1.406,1.346-1.849c0.093-0.054,0.187-0.11,0.284-0.169l15.229-7.885  c0.195-0.066,0.377-0.097,0.558-0.097c0.9,0,1.606,0.728,1.606,1.658c0,0.587-0.437,1.172-1.139,1.522l-13.562,6.818l13.562,6.818  c0.691,0.346,1.139,0.93,1.139,1.484C30.588,59.407,29.861,60.209,29.033,60.209z M28.982,40.419c-0.156,0-0.314,0.026-0.47,0.078  L13.306,48.37c-0.091,0.057-0.188,0.113-0.281,0.167c-0.743,0.439-1.234,0.728-1.234,1.655c0,0.91,0.537,1.219,1.281,1.648  c0.079,0.045,0.158,0.09,0.239,0.139l15.217,7.877c0.162,0.084,0.332,0.127,0.504,0.127c0.697,0,1.33-0.709,1.33-1.488  c0-0.465-0.407-0.98-1.014-1.283l-13.962-7.02l13.962-7.02c0.616-0.308,1.014-0.828,1.014-1.321  C30.363,41.048,29.756,40.419,28.982,40.419z"/><path xmlns="http://www.w3.org/2000/svg" d="M46.385,64.416c-0.231,0.691-0.922,1.077-1.614,0.961c-0.769-0.153-1.269-0.885-1.154-1.692  c0-0.076,0.039-0.191,0.077-0.307l9.88-27.831c0.23-0.692,0.922-1.038,1.614-0.923c0.73,0.154,1.269,0.885,1.153,1.652  c0,0.078-0.039,0.193-0.077,0.27L46.385,64.416z"/><path xmlns="http://www.w3.org/2000/svg" d="M45.016,65.511c-0.088,0-0.177-0.008-0.263-0.022c-0.837-0.167-1.371-0.949-1.247-1.819  c-0.001-0.076,0.038-0.193,0.079-0.318l9.883-27.842c0.207-0.618,0.778-1.02,1.457-1.02c0.094,0,0.188,0.009,0.281,0.023  c0.812,0.172,1.369,0.97,1.247,1.781c0.001,0.086-0.047,0.22-0.087,0.302l-9.875,27.856C46.281,65.084,45.688,65.511,45.016,65.511z   M54.925,34.715c-0.58,0-1.068,0.34-1.244,0.867l-9.88,27.833c-0.035,0.104-0.07,0.213-0.07,0.27  c-0.108,0.767,0.349,1.439,1.062,1.582c0.071,0.012,0.147,0.018,0.223,0.018c0.575,0,1.083-0.363,1.263-0.904l9.881-27.872  c0.041-0.085,0.07-0.182,0.07-0.231c0.105-0.712-0.373-1.396-1.064-1.543C55.089,34.722,55.007,34.715,54.925,34.715z"/><path xmlns="http://www.w3.org/2000/svg" d="M84.362,50.192L70.6,43.274c-0.614-0.309-1.075-0.848-1.075-1.423c0-1.038,1.037-1.962,1.998-1.462l15.223,7.881  c0.885,0.537,1.576,0.807,1.576,1.922c0,1.076-0.73,1.385-1.576,1.884l-15.223,7.881c-0.961,0.499-1.998-0.423-1.998-1.462  c0-0.537,0.461-1.075,1.075-1.383L84.362,50.192z"/><path xmlns="http://www.w3.org/2000/svg" d="M70.967,60.209c-0.828,0-1.556-0.802-1.556-1.714c0-0.555,0.447-1.139,1.139-1.484l13.562-6.818L70.55,43.374  c-0.702-0.352-1.139-0.936-1.139-1.522c0-0.913,0.728-1.714,1.556-1.714c0.209,0,0.413,0.051,0.608,0.152l15.223,7.881  c0.104,0.062,0.198,0.119,0.29,0.173c0.753,0.442,1.347,0.792,1.347,1.849c0,1.039-0.646,1.412-1.395,1.843  c-0.078,0.046-0.157,0.091-0.237,0.138l-15.228,7.884C71.38,60.157,71.176,60.209,70.967,60.209z M70.967,40.363  c-0.696,0-1.33,0.709-1.33,1.488c0,0.493,0.397,1.013,1.014,1.321l13.962,7.02l-13.962,7.02c-0.606,0.305-1.014,0.82-1.014,1.283  c0,0.779,0.634,1.488,1.33,1.488c0.172,0,0.342-0.043,0.504-0.127l15.223-7.88c0.075-0.046,0.155-0.091,0.233-0.136  c0.744-0.43,1.282-0.738,1.282-1.648c0-0.928-0.491-1.216-1.235-1.655c-0.093-0.054-0.188-0.11-0.287-0.17l-15.216-7.876  C71.309,40.405,71.139,40.363,70.967,40.363z"/></g><g id="SvgjsG3297" featureKey="nameFeature-0" transform="matrix(0.7809789739060564,0,0,0.7809789739060564,100.57935167035103,-7.14595731332058)" fill="#fff"><path d="M12.12 12.399999999999999 l0 23.12 c0 9.32 -3.24 12.08 -9.68 13.04 c-2.04 -0.04 -3.88 -4.84 -2.92 -7 c2.08 -0.72 3.08 -1.68 3.08 -4.96 l0 -24.2 c2.36 -0.72 7.2 -0.72 9.52 0 z M39.72 33.6 c1.12 1.84 0.6 5.72 -0.88 6.56 c-1.96 1.2 -7.64 1.04 -9.84 -1.64 c-2.08 1.4 -4.08 2.36 -6.48 2.36 c-4.2 0 -6.44 -2.84 -6.44 -7.08 l0 -14.36 c1.56 -0.76 7.8 -0.76 9.36 0 l0 13.32 c0 2.24 0.68 2.52 2.08 2.32 c0.2 0 0.36 -0.04 0.56 -0.08 l0 -15.56 c1.52 -0.76 7.8 -0.76 9.36 0 l0 14 c0.64 0.36 1.4 0.44 2.28 0.16 z M51.88 11.2 l0.04 19.96 c0 1.64 0.32 2.12 1.08 2.12 c0.72 0 1.68 0 2.32 -0.04 c0.36 2.96 0 5.24 -0.92 7.16 c-0.96 0.44 -2.2 0.56 -3.92 0.56 c-5.24 0 -7.96 -1.52 -7.96 -7.92 l0 -20.92 c1.76 -1.04 6.64 -1.52 9.36 -0.92 z M67.76 9.84 c0.4 1.28 0.4 4.6 0 5.88 c-1.52 0.92 -7.52 0.92 -9 0 c-0.44 -1.28 -0.44 -4.6 0 -5.88 c1.48 -0.92 7.48 -0.92 9 0 z M67.92 19.44 l0 20.56 c-1.84 0.76 -7.52 0.76 -9.36 0 l0 -20.56 c1.84 -0.76 7.52 -0.76 9.36 0 z M90.96000000000001 31.759999999999998 c-1.48 0.36 -5.76 0.48 -9.96 0.28 c0.32 1.76 1.04 2.2 2.64 2.2 c2.96 0 6.8 -0.52 7.4 -0.72 c0.88 1.32 1.4 4.04 0.8 6.32 c-1.48 0.56 -6.36 1.04 -9.16 1.04 c-8.56 0 -11.6 -3.28 -11.6 -11.32 c0 -6.8 2.48 -11 10.64 -11 c10.08 0 11.28 4.24 10.92 10.88 c-0.08 1.4 -0.48 2 -1.68 2.32 z M83.48 28.4 c0.16 -3.16 0.24 -3.48 -1.24 -3.48 c-1.24 0 -1.4 0.28 -1.4 3.52 z M111.84 25.32 l-4.52 0 l0 5.72 c0 1.68 0.36 2.12 1.16 2.12 c1.36 0 2.2 0.04 2.96 0.04 c0.72 1.36 0.2 5.8 -0.76 7.2 c-0.68 0.28 -2.36 0.48 -4.4 0.48 c-4.32 0 -8.32 -0.92 -8.32 -8.36 l0 -7.2 l-3.08 0 c-0.52 -1.36 -0.52 -4.52 0 -5.88 l3.08 0 l0 -5.24 c1.44 -1.04 7.6 -1.72 9.36 -0.92 l0 6.16 l4.52 0 c0.6 1.36 0.6 4.52 0 5.88 z M135.20000000000002 11.52 c4.08 0 10.08 0.76 10.8 1 c0.48 2.48 0.32 4.72 -0.72 7 c-2.36 -0.36 -6.72 -0.76 -9.4 -0.76 c-1.48 0 -2.24 0.16 -2.24 1.2 c0 1.08 0.6 1.12 1.96 1.72 l4.04 1.72 c4.92 2.12 7.52 3.92 7.52 9.28 c0 7.2 -4.76 8.24 -12.88 8.2 c-2.84 0 -4.72 0 -10.28 -0.88 c-0.48 -2.52 -0.28 -4.72 0.68 -7 c3.36 0.6 8.44 0.76 10.52 0.6 c0.92 -0.12 2 -0.2 2 -1.48 c0 -0.6 -0.36 -0.88 -1.64 -1.4 l-4.72 -1.92 c-4.8 -1.96 -7.24 -4.64 -7.24 -8.92 c0 -6.8 3.92 -8.36 11.6 -8.36 z M172.92000000000002 33.6 c1.12 1.84 0.68 5.72 -0.88 6.56 c-2.04 1.28 -8.04 1.04 -9.96 -2.04 c-1.44 1.56 -3.6 2.76 -6.72 2.76 c-5.32 0 -6.36 -3.92 -6.36 -7.6 c0 -4.8 2.84 -5.2 5.76 -5.44 c1.96 -0.2 4.4 -0.24 6.72 0.12 c-0.08 -1 -0.32 -1.84 -1.44 -2 c-1.16 -0.08 -5.28 -0.12 -8.28 -0.12 c-1.04 -1.44 -1.2 -5.16 -0.8 -6.72 c2.8 -0.2 3.72 -0.52 9 -0.52 c5.56 0 10.64 0.12 10.64 8.88 l0 5.96 c0.68 0.36 1.44 0.44 2.32 0.16 z M158.72 33.28 c0 1.36 0.24 2.2 2.04 1.64 c0.2 -0.12 0.48 -0.2 0.72 -0.36 l0 -3.44 c-0.48 0.04 -0.88 0.08 -1.12 0.08 c-1.36 0.2 -1.64 0.72 -1.64 2.08 z M209.04 19.44 l-4.96 20.56 c-1.96 0.72 -8.52 0.72 -10.52 0 l-1.44 -8.92 l-0.68 -6.16 l-0.32 0 l-0.56 6.12 l-1.52 8.96 c-2 0.72 -8.64 0.72 -10.6 0 l-5 -20.56 c1.68 -0.76 7.12 -0.8 9.36 0 l1.32 13.8 l0.36 0 l0.68 -4.72 l1.68 -9.08 c2.04 -0.72 6.76 -0.72 8.84 0 l1.76 9.2 l0.68 4.6 l0.36 0 l1.24 -13.8 c1.76 -0.8 7.68 -0.76 9.32 0 z M223.88 19.44 c1.88 -0.8 8.08 -0.76 9.84 0 l-4.48 17.48 c-2.52 11.16 -9.12 13.2 -17.24 12.56 c-0.96 -1.36 -0.88 -5.8 0.16 -7.12 c3.52 0 6.12 0.2 7.48 -1.84 c-2.08 0 -4.16 -0.2 -5.12 -0.52 l-6.24 -20.56 c1.76 -0.76 7.96 -0.8 9.8 0 l2.68 14.2 l0.88 0 z M254.07999999999998 31.759999999999998 c-1.48 0.36 -5.76 0.48 -9.96 0.28 c0.32 1.76 1.04 2.2 2.64 2.2 c2.96 0 6.8 -0.52 7.4 -0.72 c0.88 1.32 1.4 4.04 0.8 6.32 c-1.48 0.56 -6.36 1.04 -9.16 1.04 c-8.56 0 -11.6 -3.28 -11.6 -11.32 c0 -6.8 2.48 -11 10.64 -11 c10.08 0 11.28 4.24 10.92 10.88 c-0.08 1.4 -0.48 2 -1.68 2.32 z M246.59999999999997 28.4 c0.16 -3.16 0.24 -3.48 -1.24 -3.48 c-1.24 0 -1.4 0.28 -1.4 3.52 z M274.59999999999997 18.48 c0.88 1.88 0.92 7.96 0.04 9.76 c-1.6 -0.16 -4.52 -1.28 -6.2 -2.12 l0 13.88 c-1.52 0.76 -7.8 0.76 -9.36 0 l0 -19.96 c0.76 -0.96 6.64 -1.64 7.56 -0.92 l1.76 3.24 c1.6 -2.84 4.16 -3.72 6.2 -3.88 z M293.08 18.48 c0.88 1.88 0.92 7.96 0.04 9.76 c-1.6 -0.16 -4.52 -1.28 -6.2 -2.12 l0 13.88 c-1.52 0.76 -7.8 0.76 -9.36 0 l0 -19.96 c0.76 -0.96 6.64 -1.64 7.56 -0.92 l1.76 3.24 c1.6 -2.84 4.16 -3.72 6.2 -3.88 z"/></g>
			</g>
		</svg>
	